/* XPM */
static char *dfe58918480745deb55b1b777da297e7AehFY20q7J38yubj[] = {
/* columns rows colors chars-per-pixel */
"96 96 41 1 ",
"  c None",
". c #21021C",
"X c #30082A",
"o c #221824",
"O c #241C26",
"+ c #391A36",
"@ c #2F3437",
"# c #35393C",
"$ c #4B0D43",
"% c #550F4C",
"& c #4E1E4B",
"* c #55154C",
"= c #5F1555",
"- c #6A195E",
"; c #50304D",
": c #523D57",
"> c #632457",
", c #68325E",
"< c #751B66",
"1 c #761E68",
"2 c #7A206B",
"3 c #7E306D",
"4 c #7E2571",
"5 c #7A3C73",
"6 c #45484C",
"7 c #50535A",
"8 c #F72404",
"9 c #832976",
"0 c #882C7B",
"q c #89337D",
"w c #97398C",
"e c #924288",
"r c #9F5091",
"t c #8A7C88",
"y c #BB67B2",
"u c #AC62D9",
"i c #B4B1B1",
"p c #C1BEBE",
"a c #CCC6C6",
"s c #D5D2D2",
"d c #F1F0F0",
/* pixels */
"                                                                                                ",
"                                                                                                ",
"                                                                                                ",
"                                                                                                ",
"                                                                                                ",
"                                                                                                ",
"                                                                                                ",
"                                                                                                ",
"                                                                                                ",
"                                                                                                ",
"                                                                                                ",
"                                                                                                ",
"                                                                                                ",
"                                                                                                ",
"                                                                                                ",
"                                                                                                ",
"                                                                                                ",
"                                         iiiiiiiiii                                             ",
"                                         iaaaaaaaai                                             ",
"                                         iaddddddai                                             ",
"                                         iaddddddai                                             ",
"                                         iaddddddai                                             ",
"                                         iaddddddai                                             ",
"                                         iaddddddai                                             ",
"                                          iaaaaaai                                              ",
"                                          X$%%%%%X                                              ",
"                                          $%%=-=%$;                                             ",
"                                         $%-%=1=%$%$                                            ",
"                                       :%%9q1<<11=-%.                                           ",
"                                       &=3qq<<<<<<19%.                                          ",
"                                      $=4rw9<<<<<<<1-%.                                         ",
"                                     $=yyq92<<<<<<<<1-%.                                        ",
"                                    $-qyy92<<<<<<<<<<2=%.                                       ",
"                                   $%ryw92<<<<<<<<<<129-%$                                      ",
"                                   $%ryeq<<<<<<<<<<1<29--.                                      ",
"                                   $%eye4<<<<<<<<<1<<291=.                                      ",
"                                   $%er04<<<<<<<<1<<<2ee5.                                      ",
"                                   $>qw04<<<<<<<1<<<<9r55.                                      ",
"                                   &>9w04<<<<<<1<<<<<qr5,.                                      ",
"                                   &%qr04<<<<<1<<<<<<4r55.                                      ",
"                                   X>ry<<<<<<<<<<<<<<2q3e.                                      ",
"                                   &pppppppppp<<<<<<<29-$.                                      ",
"                                   &pssss8888p<<<<<<<29-$.                                      ",
"                                   $psss8888sp<<<<<<<29-$.                                      ",
"                                   $pss8888ssp<<<<<<129-$.                                      ",
"                                   $ps8888ssup<<<<<1<29-$.                                      ",
"                                   $p8888ssuup<<<<1<<29-$.                                      ",
"                                   $p888ssuuup<<<1<<<29-*.                                      ",
"                                   &p88ssuuuup<<1<<<<29-*.                                      ",
"                                   &p8ssuuuusp<<<<<<<20-$.                                      ",
"                                   $pssuuuussp<<<<<<<40-$.                                      ",
"                                   $psuuuusssp<<<<<<129-$.                                      ",
"                                   $puuuussssp<<<<<1<29-$.                                      ",
"                                   $puuusssssp<<<<1<<29-$.                                      ",
"                                   &puussssssp<<<1<<<29-*X                                      ",
"                                   $pusssssssp<<1<<<<20-*+                                      ",
"                                   $pssssssssp<<<<<<<29-*+                                      ",
"                                   $pssssssssp<1<<<<<291>.                                      ",
"                                   &pssssssssp1<<<<<<2q3*.                                      ",
"                                   $pssssssssp<<<<<<<9e1$.                                      ",
"                                   $pssssssssp<<<<<<4qq-$.                                      ",
"                                   &pssssssssp<<<<<<349-$.                                      ",
"                                   Xtttttttttt<<<<<1<29-$.                                      ",
"                                   .%4w04<<<<<<<<<1<<29-$.                                      ",
"                                   .%4w04<<<<<<<1<<<<29-$.                                      ",
"                                   .%4w09<<<<<<<1<<<<29-$.                                      ",
"                                   X%qee4---<<1<<---<2q5,+                                      ",
"                                   .=qrq-%%%-----%%%-1r55;                                      ",
"                                   X>===$...%%==$...$>55,;                                      ",
"                                   X+XXX..  XXXX+  .X+:;;7                                      ",
"                                   .OOOOoO  @OOO@  oOO#67                                       ",
"                                                                                                ",
"                                                                                                ",
"                                                                                                ",
"                                                                                                ",
"                                                                                                ",
"                                                                                                ",
"                                                                                                ",
"                                                                                                ",
"                                                                                                ",
"                                                                                                ",
"                                                                                                ",
"                                                                                                ",
"                                                                                                ",
"                                                                                                ",
"                                                                                                ",
"                                                                                                ",
"                                                                                                ",
"                                                                                                ",
"                                                                                                ",
"                                                                                                ",
"                                                                                                ",
"                                                                                                ",
"                                                                                                ",
"                                                                                                ",
"                                                                                                "
};
