/* XPM */
static char *ba807a72900c4100f6647fcdcb3a56472gFoiquPJ6EsMjUJ[] = {
/* columns rows colors chars-per-pixel */
"96 96 4 1 ",
"  c #31241F",
". c #291F1C",
"X c #382A22",
"o c #403127",
/* pixels */
"ooooooXXooooooooXXXoXXXXXX XX          XXXXooooooooXXXX   ..     ....  XX   XXXXXXXX   XXooooooo",
"ooXXXXoXoooooooXXXoXXXXXXX XX  XXX   XXXXooooooooooXX      .  . .....  XXXXXXXXXXXXo    Xooooooo",
"XXXXXXXXXooooooXXoXXoXX XXXXXXXXXXX XXXoooXoooooooooXX          .....  XXXXXXXoooooXX    XXooooX",
"XX X XXXXoooXoXX   XXX . XXXXXXoXoXXoooooooXoooooooXXX          ....... XoooooooXoXXXX  XXXXoooo",
"     XX Xo.. XX ...   ...  XXXXXXoXXoooooooXoooooooXX    ..  XX ......  XXoooooXooXoXXX XXXXoXXX",
"        ....  X ...   ...   XXXoXoXXoooooooX XXoooX      .   oo  .....   XXooooX  XXX XX    XX  ",
"    ... .....   ..    ....   XXXXXoooooooooX . XoXX  XX     ..  X   ..   XXoooX  . XX  X  X     ",
".   .........  ...     .....  XXXXooXoooo .X   XoX   XX      ..XoX   .  XoXoXX  ...   XXX       ",
" .  .......... .....     .... XXXXXXXooooXXX  XXoX   XX    XXoooooX.. XXXXXXXX  ... .  XXXoX.   ",
" Xo .......... .....   . .....    XXXooooooXX XXoXXXXXXX   XXooooooXXXXXXXXXX     ...  X ....X  ",
".oX   ........ .....     .. ..    XXooooooooX  XXXoXXXXX X XXoooooooXXXXXXoXX X     .  X ....   ",
"...    ............    .  ...    XXXooooooooXX  XXXX   XX XXXXoXXooooXXXXooXX     .      .....oX",
".     .............   ........   XXXoooooooXX  XX           XXXXXXoXXXXXooXXX           oX....o ",
".    X ............ X      ... XXXXXXoooooXX X X X    . ...  XXXXXXXXXXXoooXX   .     .. .......",
"..   X .........  XXX ..  X ..  XXXXXoooooXX      X ..... ..    XXXXXXXXX XX      .  ...........",
"..   XX ......    XX   .           XXoooXXXXoo. .......... X X   XXXXXX      ... .  Xoo.........",
"..    X    ..           .. XX     ..XXXXXXXooo . .........X .   XXXXX       ....... .oo......   ",
"    XXXXX    XXXX XX      XX   . ... X     ooo. X   .........  X   XX     ....................  ",
"  XXXXXXXXXXXXXoo XX   X     .......      ...Xo X    .........  .. XX      ...................  ",
"XXXXXooooooooooXX XXXXX      .......XX     .. X.XX      ...... ..          ....... ...........  ",
"XXXooooooooooXoXXXXXX    .   ....   X  X     ....XXX .      .       .    ....................   ",
"XoooooooooooooXXXXXX          ...  XXX    ..X  ......     .     .  .XX. .......... ........     ",
"XoXooooooooooXX  X       XX     .  XXXXXX   ..Xo.....  X ..    X  .ooo  ....................   X",
"Xoooooooooooo Xo        XXXX       XoXXXXXX X .  ...     ..    XXX  XX............. .......   XX",
"oooooooooooXX X .       XXXXX     XXoooXXXXX XX     X X      XX XX .......... ......         X X",
"oooooooooX  X....    X  XXoXXX    XXooooXXXX XXXXXXX  XX     X  XX  ..... ooooo .. . X   .   XXX",
"XoooooooX    .........    XXXXXXXXXooooooooXXXXX X   XX XXXXX  XXXXXXXX ...XoXX..            XXo",
"oXoooooXX   ..........X     XXoXXXoooooooooXX         XXXXXXXXXXXXXXXXXX ....... .  XX       XXo",
"oooooXXXX   ... ......o .   XooXXoooooooooooXX    . XXX XXXX X XXXXXXooooXX  . XX XXXXX      XXo",
"oooXXX X     .........oX.  XXoXXXXooooooooooooXX    XXXXX XX . XXXXXoXooooXXXXXXXXXXXXXXX    XXX",
"ooXX      XX  ....XX..... XXXXXXoXoooooooooooooX   .  XX      . X XXXoXXXX    XXooXoXXXX ... XXX",
"XXXX ...   X  ..oooo.... XXXXXXXXooooooooooooooXX ..  X  X X    XXXXXXoXX  .. XXXXXXXoXX .... XX",
"XXXX ...   X   .. ....   XXX XXXXXoXooooooooooooXX .            XX XXXXX      XoooXoXXoX ...  XX",
"XXX  ...      ......  XX      XXXXXXXXXXoooooooooX          X X  XXXXX   .  . XXXXooXoXX ... XXX",
"XXX  .         .... X    X  .  XX XooXX XXooooooXX          XX    XXX    .....   XXXXXXX  .. XXX",
"XXX         ...    XX  X    ..    XoX   XXXooooXXXXXX            X XX   ......  XXXXXXXXX    XXX",
"XXXX      ......       .    ..... .....  XXXoooX XX X    X             ..... .. XXX  XXXXXXX Xoo",
"oXXXX    ......    X ..    .....  .....   XXXoXXoooXX X   .       ...  .......       X XXXXX  XX",
" XXX     ......     ...     o .   .....  XXXXXX.Xooo   ....         .. ......oo ..      X   ..  ",
". XX    .......    ...  XX Xo     .XoX  XXXXXo ..... X              X. ......XoX.        .......",
"..X   .. ...   XX       XXX..X     . . XXoooXX  ....  XXXXXXX   X      ...... oX.   .... . .....",
".. o      XXXXXXXX       XX .X.X    . XXXoXXXXXX .  XXXXX X X    XX   .......... XX ........  . ",
"...X     XXXXooXXX        XX . o  XXXXXoooXoXXooXXXXXXoXXXXX     X    oo........XXX ..... ... ..",
"o...    XXXoooooXXXX    X     ..   XXXXXoXoooXoXoooXooooooXXX   X   ..oo .......X    .....  X  .",
"oXXX XXXXoooooooooXXX     X X  .   XXXXXooXooooooXooooXooXXXXXXX    ............  X  .... .Xoo.X",
". X  XXXXXooooooooXXX  ..  X X   .   XXXoooooooooXoXoooooooXXXXX   ............       .   ......",
".    XXXoooooooooooXX  ..  X      .   XXXXX XXXXXXXoooooooXXoXX      ..........   X        .....",
"..    XXooooooooooooXX         ....     X......   XXXooooooXooX X  X   ...oX...           ......",
"       XoooooooooooooXXX X    ... ...      . ..... ooooXXoXXXXXXXXXXX   ..oX..              .   ",
"      XXoooooooooooooooXX X    . oX...    ........ XXX    X XXoXXXoXXXXX ....                .  ",
"X ..  XXXooooooooooooooXX  X   . ooX.............     ...... XXoooooXXXXX  .     X .    ..   . X",
"X     XXXoooooooXXooooooXXXXX ...oo .............   ........  XXoooo XoXXX       X      .. ... X",
"XX    XXXXooooooXXXoooooXXXX    ....... ..................... XXooooXoXXX       XXXX    .     XX",
"    X XXXooooooXXooooooooXXXX    ...    ..................... XXooooXXXX  ...   XXXXXX      XXXX",
".      XXoXXoXXXXXXooooooXXXXXX   X    .........  ........... XXooooXX    .... XXXoXXXXXX    X  ",
"..    XXXXXXX    XXXooooXXXXXX X XXXXX .......... ..........  XXXooXXX    ...  XXXXoXXXXXXXXXX  ",
"       XX      X   XXXXXXXXXX .. XXXX ........... .......... XXXXXXXXX         XXXXXXXXXXXXXXXX ",
"  X  .          X XXX   X    .... XX  ...........  ......... XXXXXX X         XXXXXXXXoXoooXooXX",
"XX X        ...   X   ..XX   ....     ........... ....  .... XXXXXXX       XXXXXXXXXXXXXXoooooXX",
"X          ....   XX    XX   ....     ........  ............. XXX X    ..  XXXooXXXX XXXXXXooooo",
" XX X  XX  ..    XXXXX X     .....      .... o  . ..... .....         ....  XooooXX    XXXXXXXoX",
"oXXXXoXXX ...   XXXXX XX   .......... .     ..    ........ X.        .....  XoooooX           XX",
"XXXX     ..  XXXXXoXXXX    ........          .   .....  . oo.      .....   XooooooXX      ..   X",
"oXoX  X .  XXXXoooXXX X    .......  .   XX       ..... ... ..     ..      XoooooooXXX   ... .  X",
"XXXXooXX  XooooooXXXXXX    ..........   XXX X    ..........XX        .    XooooooooXX  ......  X",
"XooXXoooXoXXooooooXXXXXX   .........    XXXXXX    ....... . X X X         XXoooooooXX      ... X",
" . XooXoooX XooooooXXXXXX   ......      XXXXXXXX  ......   . XXXXX   XXXXXXXoooooooXX      ..XX ",
" ..XXXoXoooXXXoooooXXXXXX     ...    XXXXXXXXXXX ....... X X .   X XXXXXXXXoooooooooXX     .ooX ",
"X   XXXXX ooXXXoooXoXXXXXXX         X XXXXoXoXX  .... .  XX ....     XooXooooooooooooXXXXXX....X",
"XX       ..XoXooXooXoXoXXXXXX      XXXX XXXXXoX         XXX ....   . XooooooooooooooooXXXXX ...X",
"XX X      XXXXooXXXXXooooXoXXXXXXXXXXX  XXXXXXXX  XXXXXXXXX  ..  ..  XXXXXoooooooooooooooXoXXXXX",
"oXXXX     XXXXXXXoXXXXooooooooooXXX    X XXXXXXXXXooooXXXXX X     .   XXXXXXXXooooooooooooXooooo",
"ooXXXXX XXoXXX   XXXXooooooooooXXX ..      XXXXoooooooXoXXX  X X      XX    XXXXXoX oooooooooooo",
"oooXXXXXoo. X ... XXXXoooooooXXXX Xoo   X XXoXXoooooooooXXXXXXXXXX      .oo  X   XX Xooooooooooo",
"XXoooXX...... ... XXXoooooooXX   .. o    XXXoooooooooooooXXXXXXXXXX X    .....      XXoooXXXooXX",
"XXXXXXX ..    ..  XXXXooooooXX   ..... X  X XXXooooooooooooXXXXXXXX X   . o ......   XXXoXXXXooX",
"XXXXXoXXXXXXX       XXXooooooXXX  ....   XXX XXXXXXXooooooooooXoXXX .   ..o.  .....   XXXXX XoXX",
"XXXXoXXXXXXXX          XoooooooXX   ..  X Xoo  XXXXXXooooooooooooXX     ....   ......   XX   XoX",
"XXoXXoXoXoXX ........   XoooooXX    ... XX..X.  XXXXXXooooXooooooX   .    ..   ....       ..  XX",
"XXXXXXXXXXX    . .....  XXXXXXX     ..    ... X XXX XXoooXXooXoXXX       .      ... . .   ...  X",
"XXXXXXXXXXX       ....                 X        XX   XooXXXXXXXoooX             ..  .....  ..   ",
"   XXXXXXX     X   ....   .     ..     X   XXXXXX    XoX    XXooooXXXXXXXXX X       .........   ",
"  XX XXX XX X XX     .. ...    ....  .oooXXX X X  X  XXX ... XoXoooXXXooXXXXX     . .........   ",
"X  XXX   XXX       . ..  ..... ....  . oooXXXXXX      X ....    oooooooooXoXXX       ........   ",
"XXXXXX X XXXXXXXX     .  X.  .   .   ..oooX XXXX X X  X ..... .. XXooooooooooX          ..     X",
"XXXoXXX  XXXXXXXXXXX ....X  ...     .. oo .    X  X    .....  ...XXoXXoooooooXXXX XXXX        XX",
"XXoooXXXoXXoXXoXXXXX ..........      ..X... .. XXX   .......  ... XX  ooXXXXXXXXX  XXXXXX     XX",
"XoooooooXoXXoXXoXoXX ... X .     .  .......... XX   .......   ...  .....X     XXXXXXXXXXXX   XXX",
"ooooXoXoooXoXoXXoXoXX      ..    ...........  XXX   ........... .. ......         XXXXX     XXoo",
"ooooooooooooXXoooooooXXXXX  .    ... .... .   XXXX  ...........  ........           XX  . XXXooo",
"oooooooooXXXXooXoXoXoooXXXX      ........ ...  XXX   .....................          XXX  XXooooo",
"ooooooooooooXXoooooooooooXXXX   ..... .     .. XXXX  .........   .........   .      X XXXXXooooo",
"oooooooooooooooXooXooooXXXX X   .....    XXXXXXXXoXX    .         .......   .          XXXoooooo",
"oooooooooooooooooooooXooXX      ...  .    XXoooooXXXX      .   ..........   .        XXXXXXooooo",
"ooooooooooooooooooXXoXXXo . X       .    XXooooooXXX  X        .... .                XXXXXoooooo",
"oooooooooooooooooXoXXXoXXXX X            XoooooooooX XXX          ...         XX      XXXXoooooo"
};
